<svg width="194" height="194" viewBox="0 0 194 194" fill="none" xmlns="http://www.w3.org/2000/svg">
<g clip-path="url(#clip0_355_2090)">
<path d="M148 1V40" stroke="#72BD42" stroke-width="1.5" stroke-linecap="round"/>
<path d="M148 52V91" stroke="#EBEBEB" stroke-width="1.5" stroke-linecap="round"/>
<path d="M103 46H142" stroke="#EBEBEB" stroke-width="1.5" stroke-linecap="round"/>
<path d="M154 46H193" stroke="#72BD42" stroke-width="1.5" stroke-linecap="round"/>
<path d="M97 52V91" stroke="#EBEBEB" stroke-width="1.5" stroke-linecap="round"/>
<path d="M103 46H142" stroke="#72BD42" stroke-width="1.5" stroke-linecap="round"/>
<path d="M148 52V91" stroke="#72BD42" stroke-width="1.5" stroke-linecap="round"/>
<path d="M148 103V142" stroke="#EBEBEB" stroke-width="1.5" stroke-linecap="round"/>
<path d="M148 154V193" stroke="#EBEBEB" stroke-width="1.5" stroke-linecap="round"/>
<path d="M103 97H142" stroke="#EBEBEB" stroke-width="1.5" stroke-linecap="round"/>
<path d="M154 97H193" stroke="#EBEBEB" stroke-width="1.5" stroke-linecap="round"/>
<path d="M103 148H142" stroke="#EBEBEB" stroke-width="1.5" stroke-linecap="round"/>
<path d="M154 148H193" stroke="#EBEBEB" stroke-width="1.5" stroke-linecap="round"/>
<path d="M97 52V91" stroke="#EBEBEB" stroke-width="1.5" stroke-linecap="round"/>
<path d="M97 103V142" stroke="#EBEBEB" stroke-width="1.5" stroke-linecap="round"/>
<path d="M97 154V193" stroke="#72BD42" stroke-width="1.5" stroke-linecap="round"/>
<path d="M52 97H91" stroke="#EBEBEB" stroke-width="1.5" stroke-linecap="round"/>
<path d="M103 97H142" stroke="#EBEBEB" stroke-width="1.5" stroke-linecap="round"/>
<path d="M52 148H91" stroke="#72BD42" stroke-width="1.5" stroke-linecap="round"/>
<path d="M103 148H142" stroke="#EBEBEB" stroke-width="1.5" stroke-linecap="round"/>
<path d="M46 103V142" stroke="#72BD42" stroke-width="1.5" stroke-linecap="round"/>
<path d="M52 97H91" stroke="#EBEBEB" stroke-width="1.5" stroke-linecap="round"/>
<path d="M46 154V193" stroke="#72BD42" stroke-width="1.5" stroke-linecap="round"/>
<path d="M52 148H91" stroke="#72BD42" stroke-width="1.5" stroke-linecap="round"/>
<path d="M1 148H40" stroke="#72BD42" stroke-width="1.5" stroke-linecap="round"/>
</g>
<defs>
<clipPath id="clip0_355_2090">
<rect width="194" height="194" fill="white" transform="matrix(-1 0 0 1 194 0)"/>
</clipPath>
</defs>
</svg>
