<svg width="194" height="194" viewBox="0 0 194 194" fill="none" xmlns="http://www.w3.org/2000/svg">
<path d="M46 1L46 40" stroke="#72BD42" stroke-width="1.5" stroke-linecap="round"/>
<path d="M46 52L46 91" stroke="#E6E6E6" stroke-width="1.5" stroke-linecap="round"/>
<path d="M91 46H52" stroke="#E6E6E6" stroke-width="1.5" stroke-linecap="round"/>
<path d="M40 46H1" stroke="#72BD42" stroke-width="1.5" stroke-linecap="round"/>
<path d="M97 52L97 91" stroke="#E6E6E6" stroke-width="1.5" stroke-linecap="round"/>
<path d="M91 46H52" stroke="#72BD42" stroke-width="1.5" stroke-linecap="round"/>
<path d="M46 52L46 91" stroke="#72BD42" stroke-width="1.5" stroke-linecap="round"/>
<path d="M46 103L46 142" stroke="#E6E6E6" stroke-width="1.5" stroke-linecap="round"/>
<path d="M46 154L46 193" stroke="#E6E6E6" stroke-width="1.5" stroke-linecap="round"/>
<path d="M91 97H52" stroke="#E6E6E6" stroke-width="1.5" stroke-linecap="round"/>
<path d="M40 97H1" stroke="#E6E6E6" stroke-width="1.5" stroke-linecap="round"/>
<path d="M91 148H52" stroke="#E6E6E6" stroke-width="1.5" stroke-linecap="round"/>
<path d="M40 148H1" stroke="#E6E6E6" stroke-width="1.5" stroke-linecap="round"/>
<path d="M97 52L97 91" stroke="#E6E6E6" stroke-width="1.5" stroke-linecap="round"/>
<path d="M97 103L97 142" stroke="#E6E6E6" stroke-width="1.5" stroke-linecap="round"/>
<path d="M97 154L97 193" stroke="#72BD42" stroke-width="1.5" stroke-linecap="round"/>
<path d="M142 97H103" stroke="#E6E6E6" stroke-width="1.5" stroke-linecap="round"/>
<path d="M91 97H52" stroke="#E6E6E6" stroke-width="1.5" stroke-linecap="round"/>
<path d="M142 148H103" stroke="#72BD42" stroke-width="1.5" stroke-linecap="round"/>
<path d="M91 148H52" stroke="#E6E6E6" stroke-width="1.5" stroke-linecap="round"/>
<path d="M148 103L148 142" stroke="#72BD42" stroke-width="1.5" stroke-linecap="round"/>
<path d="M142 97H103" stroke="#E6E6E6" stroke-width="1.5" stroke-linecap="round"/>
<path d="M148 154L148 193" stroke="#72BD42" stroke-width="1.5" stroke-linecap="round"/>
<path d="M142 148H103" stroke="#72BD42" stroke-width="1.5" stroke-linecap="round"/>
<path d="M193 148H154" stroke="#72BD42" stroke-width="1.5" stroke-linecap="round"/>
</svg>
