<svg width="296" height="198" viewBox="0 0 296 198" fill="none" xmlns="http://www.w3.org/2000/svg">
<path d="M250 193L250 154" stroke="#72BD42" stroke-width="1.5" stroke-linecap="round"/>
<path d="M250 142L250 103" stroke="#E6E6E6" stroke-width="1.5" stroke-linecap="round"/>
<path d="M205 148H244" stroke="#D1D1D1" stroke-width="1.5" stroke-linecap="round"/>
<path d="M256 148H295" stroke="#72BD42" stroke-width="1.5" stroke-linecap="round"/>
<path d="M256 197H295" stroke="#D1D1D1" stroke-width="1.5" stroke-linecap="round"/>
<path d="M199 142L199 103" stroke="#E6E6E6" stroke-width="1.5" stroke-linecap="round"/>
<path d="M205 148H244" stroke="#72BD42" stroke-width="1.5" stroke-linecap="round"/>
<path d="M250 142L250 103" stroke="#72BD42" stroke-width="1.5" stroke-linecap="round"/>
<path d="M250 91L250 52" stroke="#E6E6E6" stroke-width="1.5" stroke-linecap="round"/>
<path d="M250 40L250 1" stroke="#E6E6E6" stroke-width="1.5" stroke-linecap="round"/>
<path d="M205 97H244" stroke="#72BD42" stroke-width="1.5" stroke-linecap="round"/>
<path d="M256 97H295" stroke="#E6E6E6" stroke-width="1.5" stroke-linecap="round"/>
<path d="M205 46H244" stroke="#E6E6E6" stroke-width="1.5" stroke-linecap="round"/>
<path d="M256 46H295" stroke="#E6E6E6" stroke-width="1.5" stroke-linecap="round"/>
<path d="M199 142L199 103" stroke="#72BD42" stroke-width="1.5" stroke-linecap="round"/>
<path d="M199 91L199 52" stroke="#72BD42" stroke-width="1.5" stroke-linecap="round"/>
<path d="M199 40L199 1" stroke="#E6E6E6" stroke-width="1.5" stroke-linecap="round"/>
<path d="M154 97H193" stroke="#72BD42" stroke-width="1.5" stroke-linecap="round"/>
<path d="M205 97H244" stroke="#72BD42" stroke-width="1.5" stroke-linecap="round"/>
<path d="M154 46H193" stroke="#72BD42" stroke-width="1.5" stroke-linecap="round"/>
<path d="M205 46H244" stroke="#E6E6E6" stroke-width="1.5" stroke-linecap="round"/>
<path d="M148 91L148 52" stroke="#72BD42" stroke-width="1.5" stroke-linecap="round"/>
<path d="M148 142L148 103" stroke="#D1D1D1" stroke-width="1.5" stroke-linecap="round"/>
<path d="M97 91L97 52" stroke="#D1D1D1" stroke-width="1.5" stroke-linecap="round"/>
<path d="M46 91L46 52" stroke="#D1D1D1" stroke-width="1.5" stroke-linecap="round"/>
<path d="M97 142L97 103" stroke="#D1D1D1" stroke-width="1.5" stroke-linecap="round"/>
<path d="M154 97H193" stroke="#72BD42" stroke-width="1.5" stroke-linecap="round"/>
<path d="M148 40L148 1" stroke="#72BD42" stroke-width="1.5" stroke-linecap="round"/>
<path d="M97 40L97 1" stroke="#D1D1D1" stroke-width="1.5" stroke-linecap="round"/>
<path d="M46 40L46 1" stroke="#D1D1D1" stroke-width="1.5" stroke-linecap="round"/>
<path d="M154 46H193" stroke="#72BD42" stroke-width="1.5" stroke-linecap="round"/>
<path d="M103 46H142" stroke="#72BD42" stroke-width="1.5" stroke-linecap="round"/>
<path d="M103 97H142" stroke="#D1D1D1" stroke-width="1.5" stroke-linecap="round"/>
<path d="M52 46H91" stroke="#D1D1D1" stroke-width="1.5" stroke-linecap="round"/>
<path d="M1 46H40" stroke="#D1D1D1" stroke-width="1.5" stroke-linecap="round"/>
<path d="M52 97H91" stroke="#D1D1D1" stroke-width="1.5" stroke-linecap="round"/>
</svg>
