<svg width="296" height="198" viewBox="0 0 296 198" fill="none" xmlns="http://www.w3.org/2000/svg">
<path d="M46 5L46 44" stroke="#D1D1D1" stroke-width="1.5" stroke-linecap="round"/>
<path d="M46 56L46 95" stroke="#E6E6E6" stroke-width="1.5" stroke-linecap="round"/>
<path d="M91 50H52" stroke="#D1D1D1" stroke-width="1.5" stroke-linecap="round"/>
<path d="M40 50H1" stroke="#D1D1D1" stroke-width="1.5" stroke-linecap="round"/>
<path d="M40 1H1" stroke="#D1D1D1" stroke-width="1.5" stroke-linecap="round"/>
<path d="M97 56L97 95" stroke="#E6E6E6" stroke-width="1.5" stroke-linecap="round"/>
<path d="M91 50H52" stroke="#D1D1D1" stroke-width="1.5" stroke-linecap="round"/>
<path d="M46 56L46 95" stroke="#D1D1D1" stroke-width="1.5" stroke-linecap="round"/>
<path d="M46 107L46 146" stroke="#E6E6E6" stroke-width="1.5" stroke-linecap="round"/>
<path d="M46 158L46 197" stroke="#E6E6E6" stroke-width="1.5" stroke-linecap="round"/>
<path d="M91 101H52" stroke="#72BD42" stroke-width="1.5" stroke-linecap="round"/>
<path d="M40 101H1" stroke="#E6E6E6" stroke-width="1.5" stroke-linecap="round"/>
<path d="M91 152H52" stroke="#E6E6E6" stroke-width="1.5" stroke-linecap="round"/>
<path d="M40 152H1" stroke="#E6E6E6" stroke-width="1.5" stroke-linecap="round"/>
<path d="M97 56L97 95" stroke="#72BD42" stroke-width="1.5" stroke-linecap="round"/>
<path d="M97 107L97 146" stroke="#72BD42" stroke-width="1.5" stroke-linecap="round"/>
<path d="M97 158L97 197" stroke="#E6E6E6" stroke-width="1.5" stroke-linecap="round"/>
<path d="M142 101H103" stroke="#72BD42" stroke-width="1.5" stroke-linecap="round"/>
<path d="M91 101H52" stroke="#72BD42" stroke-width="1.5" stroke-linecap="round"/>
<path d="M142 152H103" stroke="#72BD42" stroke-width="1.5" stroke-linecap="round"/>
<path d="M91 152H52" stroke="#E6E6E6" stroke-width="1.5" stroke-linecap="round"/>
<path d="M148 107L148 146" stroke="#72BD42" stroke-width="1.5" stroke-linecap="round"/>
<path d="M199 107L199 146" stroke="#72BD42" stroke-width="1.5" stroke-linecap="round"/>
<path d="M250 107L250 146" stroke="#D1D1D1" stroke-width="1.5" stroke-linecap="round"/>
<path d="M199 56L199 95" stroke="#72BD42" stroke-width="1.5" stroke-linecap="round"/>
<path d="M142 101H103" stroke="#72BD42" stroke-width="1.5" stroke-linecap="round"/>
<path d="M148 158L148 197" stroke="#72BD42" stroke-width="1.5" stroke-linecap="round"/>
<path d="M199 158L199 197" stroke="#D1D1D1" stroke-width="1.5" stroke-linecap="round"/>
<path d="M250 158L250 197" stroke="#D1D1D1" stroke-width="1.5" stroke-linecap="round"/>
<path d="M142 152H103" stroke="#72BD42" stroke-width="1.5" stroke-linecap="round"/>
<path d="M193 152H154" stroke="#72BD42" stroke-width="1.5" stroke-linecap="round"/>
<path d="M193 101H154" stroke="#72BD42" stroke-width="1.5" stroke-linecap="round"/>
<path d="M244 152H205" stroke="#D1D1D1" stroke-width="1.5" stroke-linecap="round"/>
<path d="M295 152H256" stroke="#D1D1D1" stroke-width="1.5" stroke-linecap="round"/>
<path d="M244 101H205" stroke="#72BD42" stroke-width="1.5" stroke-linecap="round"/>
</svg>
