<svg width="32" height="32" viewBox="0 0 32 32" fill="none" xmlns="http://www.w3.org/2000/svg">
<g clip-path="url(#clip0_383_2259)">
<path d="M11.1097 7.51381C11.0177 7.79675 11.1082 8.1 11.3401 8.28644L13.4048 9.94594L12.7098 12.5021C12.6318 12.7891 12.7369 13.0876 12.9777 13.2627C13.2186 13.4375 13.5348 13.4452 13.7837 13.2823L16 11.8315L18.2164 13.2824C18.3359 13.3606 18.4708 13.3994 18.6055 13.3994C18.7515 13.3994 18.8972 13.3537 19.0223 13.2627C19.2632 13.0878 19.3683 12.7891 19.2902 12.5021L18.5952 9.946L20.6598 8.28656C20.8918 8.10019 20.9823 7.79688 20.8903 7.51381C20.7984 7.23069 20.5469 7.0385 20.2497 7.02413L17.6039 6.89512L16.6637 4.41875C16.5581 4.14056 16.2975 3.96075 16 3.96075C15.7024 3.96075 15.4418 4.1405 15.3363 4.41869L14.396 6.89519L11.7504 7.02413C11.4531 7.0385 11.2016 7.23069 11.1097 7.51381ZM14.6344 7.88469C14.9164 7.87094 15.1633 7.6915 15.2634 7.42763L15.9999 5.48794L16.7364 7.42781C16.8367 7.69163 17.0837 7.87094 17.3654 7.88469L19.4377 7.98575L17.8205 9.28556C17.6004 9.4625 17.5062 9.75281 17.5802 10.0251L18.1245 12.0272L16.3885 10.8907C16.2705 10.8135 16.1352 10.7749 15.9998 10.7749C15.8645 10.7749 15.7291 10.8136 15.611 10.8908L13.8751 12.0272L14.4194 10.0252C14.4935 9.75275 14.3992 9.46238 14.1791 9.28556L12.5619 7.98581L14.6344 7.88469ZM15.4999 2.33488V0.5C15.4999 0.223875 15.7238 0 15.9999 0C16.276 0 16.4999 0.223875 16.4999 0.5V2.33488C16.4999 2.611 16.276 2.83488 15.9999 2.83488C15.7238 2.83488 15.4999 2.611 15.4999 2.33488ZM18.5448 5.29725C18.3601 5.09206 18.3767 4.77588 18.5818 4.59113L20.6265 2.75C20.8318 2.56519 21.1479 2.58175 21.3327 2.787C21.5175 2.99219 21.5009 3.30837 21.2957 3.49312L19.251 5.33425C19.1554 5.42031 19.0358 5.46269 18.9165 5.46269C18.7798 5.46269 18.6436 5.40694 18.5448 5.29725ZM10.6671 2.787C10.8518 2.58175 11.168 2.56519 11.3733 2.75L13.418 4.59113C13.6232 4.77588 13.6398 5.09206 13.455 5.29725C13.3563 5.40687 13.22 5.46269 13.0833 5.46269C12.9641 5.46269 12.8445 5.42031 12.7488 5.33425L10.7041 3.49312C10.4988 3.30837 10.4823 2.99219 10.6671 2.787ZM22.4145 8.28644L24.4792 9.94594L23.7843 12.5021C23.7063 12.7891 23.8113 13.0876 24.0522 13.2627C24.2928 13.4375 24.6091 13.4451 24.8582 13.2823L27.0745 11.8315L29.2908 13.2824C29.4103 13.3606 29.5453 13.3994 29.68 13.3994C29.826 13.3994 29.9717 13.3537 30.0967 13.2627C30.3375 13.0879 30.4427 12.7894 30.3646 12.5021L29.6697 9.946L31.7342 8.28656C31.9662 8.10025 32.0567 7.79694 31.9647 7.51381C31.8728 7.23069 31.6213 7.0385 31.3242 7.02413L28.6783 6.89512L27.7382 4.41875C27.6326 4.14056 27.372 3.96075 27.0745 3.96075C26.7768 3.96075 26.5163 4.1405 26.4107 4.41869L25.4705 6.89512L22.8249 7.02406C22.5275 7.03844 22.276 7.23069 22.1841 7.51381C22.0921 7.79688 22.1826 8.10019 22.4145 8.28644ZM25.7088 7.88469C25.9908 7.87094 26.2378 7.6915 26.338 7.42756L27.0744 5.48787L27.8108 7.4275C27.911 7.6915 28.158 7.87094 28.4399 7.88462L30.5122 7.98569L28.8952 9.28537C28.675 9.46225 28.5806 9.75262 28.6547 10.025L29.199 12.0271L27.463 10.8907C27.3449 10.8134 27.2096 10.7748 27.0743 10.7748C26.9389 10.7748 26.8035 10.8135 26.6855 10.8907L24.9496 12.0271L25.4939 10.0251C25.568 9.75281 25.4737 9.4625 25.2536 9.2855L23.6364 7.98569L25.7088 7.88469ZM0.26553 8.28644L2.33022 9.94594L1.63528 12.5021C1.55728 12.7891 1.66234 13.0876 1.90316 13.2627C2.14403 13.4375 2.46022 13.4452 2.70916 13.2823L4.92547 11.8315L7.14184 13.2824C7.26134 13.3606 7.39628 13.3994 7.53097 13.3994C7.67697 13.3994 7.82266 13.3537 7.94772 13.2627C8.18853 13.0879 8.29366 12.7894 8.21559 12.5021L7.52066 9.946L9.58522 8.28656C9.81709 8.10038 9.90766 7.79713 9.81572 7.5135C9.72359 7.23056 9.47209 7.03844 9.17516 7.02406L6.52934 6.89506L5.58916 4.41875C5.48359 4.14056 5.22303 3.96075 4.92547 3.96075C4.62784 3.96075 4.36728 4.1405 4.26172 4.41869L3.32153 6.89512L0.675905 7.02406C0.378593 7.03844 0.127093 7.23069 0.0352179 7.5135C-0.0569697 7.79669 0.0334678 8.10012 0.26553 8.28644ZM3.55978 7.88469C3.84184 7.87094 4.08884 7.6915 4.18897 7.42756L4.92541 5.48787L5.66178 7.4275C5.76197 7.6915 6.00897 7.87094 6.29091 7.88462L8.36322 7.98569L6.74616 9.28537C6.52597 9.46225 6.43159 9.75262 6.50572 10.025L7.05003 12.0271L5.31403 10.8907C5.19591 10.8134 5.06059 10.7748 4.92528 10.7748C4.78991 10.7748 4.65453 10.8135 4.53647 10.8907L2.80059 12.0271L3.34491 10.0251C3.41897 9.75281 3.32472 9.4625 3.10459 9.2855L1.48741 7.98569L3.55978 7.88469ZM31.9212 26.5583C31.5694 25.4222 30.8488 24.4021 29.8922 23.6857C29.4342 23.3428 28.9354 23.0756 28.4093 22.8865C29.1387 22.314 29.6087 21.4253 29.6087 20.4282C29.6087 18.7053 28.207 17.3037 26.4842 17.3037C24.7613 17.3037 23.3597 18.7053 23.3597 20.4282C23.3597 21.4241 23.8285 22.3119 24.5565 22.8845C23.5808 23.2328 22.7165 23.8446 22.0545 24.6691C21.7452 24.2363 21.3883 23.8343 20.9871 23.4715C20.1787 22.7404 19.23 22.2036 18.2083 21.8862C19.2918 21.168 20.008 19.9382 20.008 18.5438C20.008 16.3338 18.21 14.5358 16 14.5358C13.79 14.5358 11.9919 16.3338 11.9919 18.5438C11.9919 19.9382 12.7081 21.168 13.7915 21.8862C12.7698 22.2035 11.8211 22.7404 11.0127 23.4715C10.6115 23.8343 10.2547 24.2363 9.94534 24.6691C9.28347 23.8445 8.41909 23.2326 7.44334 22.8843C8.17128 22.3117 8.64022 21.4239 8.64022 20.428C8.64022 18.7051 7.23853 17.3035 5.51572 17.3035C3.79284 17.3035 2.39116 18.7051 2.39116 20.428C2.39116 21.425 2.86116 22.3138 3.59053 22.8863C3.06441 23.0754 2.56566 23.3426 2.10759 23.6855C1.15091 24.4018 0.430343 25.422 0.0785304 26.5581C-0.0840321 27.0828 0.00603035 27.6154 0.332093 28.0578C0.658093 28.5 1.14022 28.7435 1.68959 28.7435H8.60166V29.6459C8.60166 30.944 9.65772 32.0001 10.9558 32.0001H21.044C22.342 32.0001 23.3982 30.944 23.3982 29.6459V28.7437H30.3102C30.8597 28.7437 31.3418 28.5002 31.6677 28.058C31.9937 27.6156 32.0838 27.083 31.9212 26.5583ZM26.4842 18.3037C27.6557 18.3037 28.6087 19.2568 28.6087 20.4282C28.6087 21.5997 27.6557 22.5527 26.4842 22.5527C25.3127 22.5527 24.3597 21.5997 24.3597 20.4282C24.3597 19.2568 25.3127 18.3037 26.4842 18.3037ZM12.9919 18.5438C12.9919 16.8851 14.3413 15.5358 16 15.5358C17.6586 15.5358 19.008 16.8851 19.008 18.5438C19.008 20.2019 17.6595 21.5509 16.0016 21.5518C16.001 21.5518 16.0004 21.5518 15.9999 21.5518C15.9994 21.5518 15.9988 21.5518 15.9983 21.5518C14.3404 21.5508 12.9919 20.2018 12.9919 18.5438ZM5.51572 18.3034C6.68716 18.3034 7.64022 19.2565 7.64022 20.4279C7.64022 21.5994 6.68716 22.5525 5.51572 22.5525C4.34422 22.5525 3.39116 21.5994 3.39116 20.4279C3.39116 19.2565 4.34422 18.3034 5.51572 18.3034ZM8.66659 27.7434H1.68966C1.45953 27.7434 1.27366 27.6496 1.13709 27.4643C1.00047 27.2791 0.96578 27.0737 1.03384 26.8539C1.64534 24.8792 3.44653 23.5525 5.51572 23.5525C7.08091 23.5525 8.50672 24.3088 9.38366 25.5889C9.03697 26.2624 8.79416 26.9884 8.66659 27.7434ZM22.3982 29.6458C22.3982 30.3925 21.7907 31 21.044 31H10.9558C10.2092 31 9.60166 30.3925 9.60166 29.6458V28.2706C9.96366 25.0089 12.7089 22.5526 15.9983 22.5518C15.9988 22.5518 15.9994 22.5518 16 22.5518C16.0005 22.5518 16.0011 22.5518 16.0016 22.5518C19.2909 22.5526 22.0361 25.0089 22.3982 28.2706V29.6458ZM30.8628 27.4646C30.7262 27.6498 30.5404 27.7437 30.3102 27.7437H23.3333C23.2057 26.9886 22.9629 26.2626 22.6163 25.5891C23.4933 24.3089 24.919 23.5527 26.4842 23.5527C28.5533 23.5527 30.3545 24.8795 30.966 26.8542C31.0341 27.0739 30.9993 27.2792 30.8628 27.4646Z" fill="#3FAD46"/>
</g>
<defs>
<clipPath id="clip0_383_2259">
<rect width="32" height="32" fill="white"/>
</clipPath>
</defs>
</svg>
