<svg width="32" height="32" viewBox="0 0 32 32" fill="none" xmlns="http://www.w3.org/2000/svg">
<path d="M2.66699 19.3337L15.5233 25.7619C15.6982 25.8493 15.7857 25.8931 15.8774 25.9103C15.9586 25.9255 16.042 25.9255 16.1233 25.9103C16.215 25.8931 16.3024 25.8493 16.4774 25.7619L29.3337 19.3337M2.66699 12.6671L15.5233 6.23892C15.6982 6.15147 15.7857 6.10774 15.8774 6.09053C15.9586 6.07529 16.042 6.07529 16.1233 6.09053C16.215 6.10774 16.3024 6.15147 16.4774 6.23892L29.3337 12.6671L16.4774 19.0952C16.3024 19.1827 16.215 19.2264 16.1233 19.2436C16.042 19.2589 15.9586 19.2589 15.8774 19.2436C15.7857 19.2264 15.6982 19.1827 15.5233 19.0952L2.66699 12.6671Z" stroke="#3FAD46" stroke-width="1.5" stroke-linecap="round" stroke-linejoin="round"/>
</svg>
