<svg width="32" height="32" viewBox="0 0 32 32" fill="none" xmlns="http://www.w3.org/2000/svg">
<path d="M19.2534 25.3997L21.2801 27.4264L25.3334 23.373" stroke="#3FAD46" stroke-width="1.5" stroke-linecap="round" stroke-linejoin="round"/>
<path d="M16.2135 14.4937C16.0801 14.4803 15.9201 14.4803 15.7735 14.4937C12.6001 14.387 10.0801 11.787 10.0801 8.58699C10.0668 5.32033 12.7201 2.66699 15.9868 2.66699C19.2535 2.66699 21.9068 5.32033 21.9068 8.58699C21.9068 11.787 19.3735 14.387 16.2135 14.4937Z" stroke="#3FAD46" stroke-width="1.5" stroke-linecap="round" stroke-linejoin="round"/>
<path d="M15.9867 29.0799C13.5601 29.0799 11.1467 28.4666 9.30672 27.2399C6.08005 25.0799 6.08005 21.5599 9.30672 19.4132C12.9734 16.9599 18.9867 16.9599 22.6534 19.4132" stroke="#3FAD46" stroke-width="1.5" stroke-linecap="round" stroke-linejoin="round"/>
</svg>
